<svg xmlns="http://www.w3.org/2000/svg" xml:space="preserve" viewBox="0 0 1010 1010" id="invoice">
  <circle cx="505" cy="505" r="505" fill="#FC6E51"></circle>
  <path fill="#FFF" d="M719.536 787.8H290.464V222.2h351.063l78.01 78.009z"></path>
  <path fill="#ACAF48" d="M426.981 358.728h234.056v58.499H426.981z"></path>
  <path fill="#FFB933" d="M582.26 593.443h78.017v58.51H582.26z"></path>
  <path fill="#FFF" d="M505 592.773h78.019v58.51H505z"></path>
  <path fill="#3BAFDA" d="M641.527 222.2v78.009h78.01"></path>
  <path fill="#454545" d="M719.536 309.973h-87.773V222.2h19.529v68.244h68.244v19.53z"></path>
  <path fill="#454545" d="M729.637 797.9H280.364V212.1H645.71l83.927 83.926V797.9zm-429.073-20.2h408.873V304.39l-72.091-72.09H300.564v545.4z"></path>
  <path fill="#454545" d="M475.736 290.809H339.218v-20.2h136.518v20.2zM671.137 661.383H338.873V348.627h332.264v312.756zm-312.064-20.201h291.865V368.827H359.072v272.355zM670.782 710.481H514.755v-20.2h156.027v20.2zM612.273 739.39h-97.518v-20.199h97.518v20.2z"></path>
  <path fill="#454545" d="M661.037 427.327H348.973v-20.2h312.064v20.2z"></path>
  <path fill="#454545" d="M437.082 651.282h-20.2V358.727h20.2v292.555zM515.1 651.282h-20.2V417.227h20.2v234.055zM593.12 651.282h-20.201V417.227h20.2v234.055z"></path>
  <path fill="#454545" d="M661.037 485.846H426.981v-20.2h234.056v20.2zM661.037 544.355H426.981v-20.2h234.056v20.2zM661.037 602.873H426.981v-20.2h234.056v20.2z"></path>
</svg>
